<svg width="181" height="181" viewBox="0 0 181 181" fill="none" xmlns="http://www.w3.org/2000/svg">
<circle cx="90.5" cy="90.5" r="90.5" fill="black"/>
<path d="M35.8435 98.1177H19L25.3675 70.5838H42.2155L35.848 98.1177H35.8435ZM25.462 69.897L26.8345 64.1951H43.6825L42.31 69.897H25.462ZM27.127 62.9119L28.3015 57.8967H45.0505L43.975 62.9119H27.127ZM28.792 55.8319L29.773 51.5035H46.522L45.541 55.8319H28.792ZM98.6275 45.2142C98.956 46.5244 99.118 47.7398 99.118 48.8513H30.3625L31.1455 45.2142H98.6275ZM95.2975 38.9203C95.689 39.3812 96.049 39.8556 96.373 40.3481C96.697 40.8405 97.0255 41.3466 97.354 41.8707H31.9285L32.6125 38.9203H95.2975ZM85.897 34C87.2695 34 88.6375 34.2937 90.01 34.8856H33.5935L33.7915 34H85.897ZM45.442 73.9273C45.64 72.9423 46.063 71.8308 46.7155 70.5838H86.482C84.7855 71.6998 83.0845 72.5673 81.388 73.1908C79.6915 73.8143 78.0895 74.1261 76.5865 74.1261H66.889C66.4345 74.1261 65.908 74.2074 65.323 74.37C64.7335 74.5327 64.162 74.7631 63.6085 75.0568C63.055 75.3505 62.5825 75.7119 62.191 76.1367C61.7995 76.5614 61.5385 77.0719 61.408 77.6593L61.21 78.3461C61.147 79.331 61.5835 80.1172 62.533 80.7046C63.478 81.2964 64.378 81.5901 65.224 81.5901H91.765L87.9445 98.1132H56.1115C54.217 98.1132 52.4215 97.6207 50.725 96.6402C49.0285 95.6553 47.5885 94.3766 46.414 92.8043C45.2395 91.2319 44.3755 89.4789 43.8175 87.5451C43.264 85.6113 43.2145 83.6595 43.669 81.694L45.433 73.9273H45.442ZM47.0125 69.897C47.602 68.9121 48.2995 67.9452 49.1185 66.9964C49.933 66.043 50.8015 65.1123 51.715 64.1951H93.7315C91.9675 66.3593 89.911 68.2615 87.562 69.897H47.0125ZM53.182 62.9119C54.685 61.6649 56.2825 60.5986 57.979 59.7176C59.6755 58.832 61.3405 58.2265 62.974 57.8967H97.156C96.895 58.7507 96.5665 59.6001 96.175 60.454C95.7835 61.308 95.293 62.1257 94.708 62.9119H53.182ZM81.1945 54.0608C81.3925 53.0126 81.0955 52.1586 80.3125 51.5035H98.7265L97.651 55.8319H80.218C80.677 55.371 81.001 54.7837 81.199 54.0608H81.1945Z" fill="#1E8114"/>
<path d="M106.916 134.611H124.156L124.997 130.974H107.762L106.916 134.611Z" fill="#1E8114"/>
<path d="M90.5587 117.596C91.8322 119.168 93.3487 120.465 95.1127 121.481C95.3962 121.644 95.6842 121.788 95.9677 121.929H140.968C141.314 121.793 141.67 121.644 142.025 121.481C144.244 120.465 146.35 119.172 148.343 117.596C148.622 117.374 148.888 117.139 149.158 116.909H90.0547C90.2212 117.139 90.3787 117.374 90.5542 117.596H90.5587Z" fill="#1E8114"/>
<path d="M105.458 140.905H122.693L123.377 137.955H106.142L105.458 140.905Z" fill="#1E8114"/>
<path d="M87.7641 112.287C88.1196 113.48 88.6191 114.586 89.2221 115.635H150.571C151.66 114.586 152.668 113.48 153.577 112.287C154.175 111.501 154.688 110.714 155.125 109.928H87.3096C87.3771 110.714 87.5256 111.501 87.7596 112.287H87.7641Z" fill="#1E8114"/>
<path d="M108.374 128.317H125.614L126.617 123.993H109.378L108.374 128.317Z" fill="#1E8114"/>
<path d="M144.963 81.7079L140.067 102.948C139.806 104.064 139.041 104.931 137.768 105.555C136.494 106.178 135.401 106.49 134.487 106.49H109.413C108.954 106.49 108.482 106.409 107.991 106.246C107.501 106.084 107.06 105.853 106.668 105.559C106.277 105.266 105.966 104.886 105.737 104.43C105.507 103.969 105.458 103.481 105.588 102.957L110.444 81.8976L110.484 81.7169H93.2449L91.0669 91.1735L87.5614 106.4C87.3409 107.353 87.2464 108.302 87.2689 109.255H155.48C155.948 108.302 156.29 107.353 156.515 106.4L162.194 81.7214H144.954L144.963 81.7079Z" fill="#1E8114"/>
<path d="M104.319 145.821H121.554L121.761 144.94H104.522L104.319 145.821Z" fill="#1E8114"/>
</svg>
