<svg width="153" height="153" viewBox="0 0 153 153" fill="none" xmlns="http://www.w3.org/2000/svg">
<rect width="153" height="153" fill="black"/>
<path d="M21.8435 84.1177H5L11.3675 56.5838H28.2155L21.848 84.1177H21.8435ZM11.462 55.897L12.8345 50.1951H29.6825L28.31 55.897H11.462ZM13.127 48.9119L14.3015 43.8967H31.0505L29.975 48.9119H13.127ZM14.792 41.8319L15.773 37.5035H32.522L31.541 41.8319H14.792ZM84.6275 31.2142C84.956 32.5244 85.118 33.7398 85.118 34.8513H16.3625L17.1455 31.2142H84.6275ZM81.2975 24.9203C81.689 25.3812 82.049 25.8556 82.373 26.3481C82.697 26.8405 83.0255 27.3466 83.354 27.8707H17.9285L18.6125 24.9203H81.2975ZM71.897 20C73.2695 20 74.6375 20.2937 76.01 20.8856H19.5935L19.7915 20H71.897ZM31.442 59.9273C31.64 58.9423 32.063 57.8308 32.7155 56.5838H72.482C70.7855 57.6998 69.0845 58.5673 67.388 59.1908C65.6915 59.8143 64.0895 60.1261 62.5865 60.1261H52.889C52.4345 60.1261 51.908 60.2074 51.323 60.37C50.7335 60.5327 50.162 60.7631 49.6085 61.0568C49.055 61.3505 48.5825 61.7119 48.191 62.1367C47.7995 62.5614 47.5385 63.0719 47.408 63.6593L47.21 64.3461C47.147 65.331 47.5835 66.1172 48.533 66.7046C49.478 67.2964 50.378 67.5901 51.224 67.5901H77.765L73.9445 84.1132H42.1115C40.217 84.1132 38.4215 83.6207 36.725 82.6402C35.0285 81.6553 33.5885 80.3766 32.414 78.8043C31.2395 77.2319 30.3755 75.4789 29.8175 73.5451C29.264 71.6113 29.2145 69.6595 29.669 67.694L31.433 59.9273H31.442ZM33.0125 55.897C33.602 54.9121 34.2995 53.9452 35.1185 52.9964C35.933 52.043 36.8015 51.1123 37.715 50.1951H79.7315C77.9675 52.3593 75.911 54.2615 73.562 55.897H33.0125ZM39.182 48.9119C40.685 47.6649 42.2825 46.5986 43.979 45.7176C45.6755 44.832 47.3405 44.2265 48.974 43.8967H83.156C82.895 44.7507 82.5665 45.6001 82.175 46.454C81.7835 47.308 81.293 48.1257 80.708 48.9119H39.182ZM67.1945 40.0608C67.3925 39.0126 67.0955 38.1586 66.3125 37.5035H84.7265L83.651 41.8319H66.218C66.677 41.371 67.001 40.7837 67.199 40.0608H67.1945Z" fill="#1E8114"/>
<path d="M92.916 120.611H110.156L110.997 116.974H93.762L92.916 120.611Z" fill="#1E8114"/>
<path d="M76.5587 103.596C77.8322 105.168 79.3487 106.465 81.1127 107.481C81.3962 107.644 81.6842 107.788 81.9677 107.929H126.968C127.314 107.793 127.67 107.644 128.025 107.481C130.244 106.465 132.35 105.172 134.343 103.596C134.622 103.374 134.888 103.139 135.158 102.909H76.0547C76.2212 103.139 76.3787 103.374 76.5542 103.596H76.5587Z" fill="#1E8114"/>
<path d="M91.458 126.905H108.693L109.377 123.955H92.142L91.458 126.905Z" fill="#1E8114"/>
<path d="M73.7641 98.2867C74.1196 99.4795 74.6191 100.586 75.2221 101.635H136.571C137.66 100.586 138.668 99.4795 139.577 98.2867C140.175 97.5006 140.688 96.7144 141.125 95.9282H73.3096C73.3771 96.7144 73.5256 97.5006 73.7596 98.2867H73.7641Z" fill="#1E8114"/>
<path d="M94.374 114.317H111.614L112.617 109.993H95.3775L94.374 114.317Z" fill="#1E8114"/>
<path d="M130.963 67.7079L126.067 88.9479C125.806 90.0639 125.041 90.9314 123.768 91.5549C122.494 92.1784 121.401 92.4902 120.487 92.4902H95.4134C94.9544 92.4902 94.4819 92.4088 93.9914 92.2462C93.5009 92.0835 93.0599 91.8531 92.6684 91.5594C92.2769 91.2657 91.9664 90.8862 91.7369 90.4299C91.5074 89.969 91.4579 89.4811 91.5884 88.9569L96.4439 67.8976L96.4844 67.7169H79.2449L77.0669 77.1735L73.5614 92.3998C73.3409 93.3531 73.2464 94.302 73.2689 95.2553H141.48C141.948 94.302 142.29 93.3531 142.515 92.3998L148.194 67.7214H130.954L130.963 67.7079Z" fill="#1E8114"/>
<path d="M90.3193 131.821H107.554L107.761 130.94H90.5218L90.3193 131.821Z" fill="#1E8114"/>
</svg>
