<svg width="239" height="272" viewBox="0 0 239 272" fill="none" xmlns="http://www.w3.org/2000/svg">
<path d="M71.0212 197.588C81.4212 197.588 87.6878 194.588 89.5212 193.088C89.5212 184.688 95.8545 175.921 99.0212 172.588C87.5212 172.588 58.5212 164.588 46.0212 150.588C33.5212 136.588 28.5212 118.588 28.5212 95.0881C28.5212 76.288 39.1878 60.2547 44.5212 54.5881C38.5212 39.388 43.0212 20.588 46.0212 13.088C59.6212 11.888 80.3545 23.2547 89.0212 29.0881C95.3545 27.4214 111.821 24.088 127.021 24.088C142.221 24.088 159.355 27.4214 166.021 29.0881C184.821 13.8881 202.521 12.4214 209.021 13.5881C216.621 27.9881 213.188 46.9214 210.521 54.5881C215.521 59.2548 225.621 73.8881 226.021 95.0881C226.521 121.588 222.521 131.588 208.521 150.588C197.321 165.788 168.521 171.588 155.521 172.588C163.921 178.188 166.021 195.588 166.021 203.588V244.088V254.451C157.838 256.639 144.726 259.088 127.021 259.088C109.673 259.088 96.7335 256.737 88.5212 254.584V241.088L88.0212 215.088C78.5212 217.588 61.0212 216.088 56.5212 215.088C52.0212 214.088 43.0212 211.088 37.5212 199.088C32.0212 187.088 27.0212 181.088 24.0212 177.588C21.0212 174.088 12.5212 170.588 13.0212 167.588C13.4212 165.188 18.1878 164.588 20.5212 164.588C36.0212 164.588 46.0212 183.588 47.5212 185.588C49.0212 187.588 58.0212 197.588 71.0212 197.588Z" fill="black"/>
</svg>
