<svg width="774" height="185" viewBox="0 0 774 185" fill="none" xmlns="http://www.w3.org/2000/svg">
<path d="M769.778 101.996C771.668 92.7208 772.844 83.3143 773.296 73.8593C773.296 56.9772 764.501 46.4259 743.04 46.4259C714.895 46.4259 696.952 67.5285 696.952 105.865C696.952 129.43 708.562 144.202 731.782 144.202C746.495 144.46 761.029 140.949 774 134.002L768.019 113.251C754.65 118.878 746.206 120.989 739.17 120.989C732.134 120.989 727.56 116.416 727.56 105.865V104.458L769.778 101.996ZM728.967 86.5209C730.023 74.5627 733.189 68.2319 740.929 68.2319C741.837 68.2307 742.736 68.4145 743.571 68.7721C744.406 69.1297 745.159 69.6536 745.785 70.3119C746.41 70.9701 746.895 71.7489 747.209 72.6007C747.524 73.4525 747.661 74.3595 747.614 75.2662C747.496 78.8028 747.143 82.3276 746.558 85.8175L728.967 86.5209ZM694.137 0L663.529 1.40684L649.456 142.795H680.065L694.137 0ZM590.703 78.0799C593.884 76.0698 597.506 74.8628 601.257 74.5627C607.59 74.5627 610.405 79.135 610.405 88.2795C610.405 109.03 606.183 120.285 596.332 120.285C593.001 120.242 589.69 119.769 586.481 118.878L590.703 78.0799ZM583.666 143.498H591.406C621.663 143.498 640.661 123.802 640.661 81.2453C640.661 57.6806 632.569 47.481 616.737 47.481C609.701 47.481 604.424 50.9981 592.462 59.4392L593.165 49.5913H563.613L550.595 181.131L580.5 179.724L583.666 143.498ZM516.117 88.9829C516.117 110.789 510.136 119.582 502.045 119.582C493.953 119.582 490.786 116.416 490.786 101.644C490.786 79.8384 497.119 71.749 504.859 71.749C512.599 71.749 516.117 74.9144 516.117 88.9829ZM546.022 86.1692C546.022 60.1426 534.06 47.1293 506.618 47.1293C479.176 47.1293 460.882 70.6939 460.882 103.755C460.882 136.816 473.547 144.202 500.285 144.202C527.024 144.202 546.022 123.099 546.022 86.1692ZM447.865 101.996C449.754 92.7208 450.93 83.3143 451.383 73.8593C451.383 56.9772 442.587 46.4259 421.126 46.4259C392.981 46.4259 375.038 67.5285 375.038 105.865C375.038 129.43 386.296 144.202 409.868 144.202C424.581 144.46 439.115 140.949 452.086 134.002L446.105 113.251C432.736 118.878 423.941 120.989 417.256 120.989C410.572 120.989 405.646 116.416 405.646 105.865V104.458L447.865 101.996ZM406.702 86.5209C408.109 74.5627 410.924 68.2319 419.015 68.2319C419.91 68.2264 420.795 68.4103 421.613 68.7715C422.431 69.1327 423.164 69.663 423.762 70.3275C424.36 70.9921 424.811 71.7757 425.084 72.627C425.358 73.4782 425.448 74.3777 425.348 75.2662C425.391 78.7963 425.156 82.3243 424.645 85.8175L406.702 86.5209ZM316.285 78.0799C319.466 76.0698 323.088 74.8628 326.839 74.5627C333.172 74.5627 335.986 79.135 335.986 88.2795C335.986 109.03 331.765 120.285 321.914 120.285C318.583 120.242 315.272 119.769 312.063 118.878L316.285 78.0799ZM309.248 143.498H317.34C347.245 143.498 366.243 123.802 366.243 81.2453C366.243 57.6806 358.151 47.481 342.319 47.481C335.283 47.481 330.005 50.9981 318.044 59.4392L318.747 49.5913H289.195L276.177 181.131L306.082 179.724L309.248 143.498ZM205.11 75.6179C217.775 71.0456 222.701 70.3422 228.682 70.3422C234.663 70.3422 237.829 73.5076 237.829 78.4316C237.829 83.3555 235.718 87.2243 224.812 96.0171L192.445 122.395L194.907 142.795H267.03L269.141 119.933H230.089L246.273 107.272C263.512 93.9068 269.141 86.1692 269.141 72.8042C269.141 59.4392 256.475 44.6673 236.07 44.6673C222.867 45.0531 209.905 48.2928 198.074 54.1635L205.11 75.6179ZM157.615 88.9829C157.615 110.789 151.985 119.582 143.894 119.582C135.802 119.582 132.635 116.416 132.635 101.644C132.635 79.8384 138.616 71.749 146.356 71.749C154.096 71.749 157.615 74.9144 157.615 88.9829ZM187.519 86.1692C187.519 60.1426 175.909 47.1293 148.467 47.1293C121.025 47.1293 102.379 70.6939 102.379 103.755C102.379 136.816 115.396 144.202 142.135 144.202C168.873 144.202 187.519 123.099 187.519 86.1692ZM61.5682 155.105C61.5682 160.029 52.0691 164.249 42.57 164.249C33.0709 164.249 29.5527 161.435 29.5527 158.622C29.5828 154.875 30.6812 151.215 32.7191 148.07L57.3464 150.884C60.8645 151.236 61.5682 152.643 61.5682 155.105ZM61.2164 86.8726C61.2164 94.6103 56.2909 99.5342 39.7555 99.8859C38.3471 95.4388 37.5194 90.8284 37.2927 86.1692C37.2927 77.0247 40.4591 68.9354 49.6064 68.9354C58.7536 68.9354 61.2164 73.8593 61.2164 86.8726ZM51.3655 46.7776C24.2755 46.7776 8.79545 64.7148 8.79545 88.6312C9.04506 97.667 11.8507 106.447 16.8873 113.954C8.44364 122.395 6.33273 125.913 6.33273 130.133C6.14931 132.741 6.75606 135.344 8.0739 137.603C9.39175 139.861 11.3596 141.67 13.7209 142.795C2.11091 153.346 0 156.863 0 162.491C0 174.8 10.5545 185 39.4036 185C68.2527 185 90.7691 168.47 90.7691 147.367C90.7691 136.816 85.14 130.485 72.4745 129.078L35.8855 124.154C35.1818 123.802 34.83 123.802 34.83 122.747C34.9228 121.35 35.4109 120.009 36.2373 118.878C77.0482 118.878 90.0655 105.162 90.0655 85.4658C90.169 79.3391 89.0941 73.2497 86.8991 67.5285L99.9164 65.77L96.0464 42.557L69.66 49.943C63.7775 47.8891 57.5963 46.8196 51.3655 46.7776Z" fill="#A60111"/>
</svg>
