<svg width="671" height="119" viewBox="0 0 671 119" fill="none" xmlns="http://www.w3.org/2000/svg">
<path d="M198.663 91.9609V117.17H175.947V-0.0078125H198.663V61.4888L231.294 27.0342H258.876L223.181 65.4332L258.876 117.17H233.096L208.218 81.6569L198.663 91.9609Z" fill="#A60111"/>
<path d="M336.618 105.363C327.542 113.836 316.635 118.072 303.897 118.072C291.16 118.072 280.343 113.865 271.448 105.453C262.552 97.0418 258.106 85.9851 258.107 72.2824C258.107 58.4636 262.705 47.3169 271.899 38.8419C281.094 30.3669 292 26.1303 304.62 26.1321C317.239 26.1321 327.996 30.3384 336.89 38.7511C345.784 47.1638 350.231 58.221 350.231 71.9222C350.23 85.7455 345.692 96.8922 336.618 105.363ZM288.123 89.9486C292.387 94.7564 297.885 97.1604 304.618 97.1589C311.35 97.1579 316.698 94.7845 320.663 90.0386C324.628 85.2923 326.611 79.313 326.611 72.1013C326.611 64.8891 324.628 58.9098 320.663 54.164C316.697 49.4177 311.349 47.0436 304.618 47.0425C297.886 47.0415 292.388 49.4452 288.123 54.254C283.855 59.0618 281.721 65.0111 281.722 72.1013C281.723 79.191 283.856 85.1403 288.123 89.9486Z" fill="#A60111"/>
<path d="M409.538 26.132C421.194 26.132 431.109 30.4587 439.284 39.1121C447.459 47.7655 451.546 58.7622 451.543 72.1018C451.543 85.4424 447.457 96.4391 439.284 105.092C431.112 113.746 421.196 118.072 409.538 118.072C400.042 118.072 392.41 114.887 386.642 108.518H383.938L381.413 117.17H363.746V-0.0078125H386.28V35.8668C392.051 29.3773 399.804 26.1323 409.538 26.132ZM391.69 89.4984C395.295 93.766 400.102 95.8993 406.112 95.8989C408.988 95.9397 411.842 95.4019 414.505 94.3181C417.168 93.2342 419.587 91.6258 421.616 89.589C425.943 85.3828 428.106 79.5541 428.106 72.1018C428.106 64.65 425.943 58.8207 421.616 54.6151C419.587 52.5792 417.168 50.9714 414.505 49.8875C411.841 48.8036 408.987 48.2659 406.112 48.3057C400.101 48.3057 395.293 50.439 391.69 54.7057C388.086 58.9723 386.283 64.771 386.28 72.1018C386.28 79.4346 388.083 85.2333 391.69 89.4984Z" fill="#A60111"/>
<path d="M537.692 86.8849C537.692 91.8143 538.563 95.2096 540.305 97.0698C542.047 98.9306 544.725 99.8619 548.328 99.8644V117.17H542.919C531.982 117.17 525.008 113.325 522.01 105.633C515.995 113.926 506.501 118.072 493.522 118.072C483.306 118.072 475.193 115.668 469.185 110.861C463.178 106.053 460.173 99.5638 460.171 91.3916C460.104 87.2269 461.064 83.1098 462.965 79.4036C464.813 75.874 467.586 72.9136 470.988 70.8403C474.297 68.7685 477.763 66.9604 481.354 65.4323C485.384 63.8269 489.589 62.7071 493.886 62.097C498.813 61.3182 502.716 60.8075 505.6 60.5644C508.484 60.3214 511.91 60.0813 515.877 59.8436C515.518 50.351 510.409 45.6039 500.555 45.6018C498.424 45.5656 496.298 45.839 494.245 46.4133C492.788 46.788 491.412 47.4297 490.188 48.3057C489.362 48.9488 488.634 49.7079 488.025 50.5596C487.56 51.177 487.222 51.8816 487.033 52.6309L486.853 53.3517H464.318C465.158 45.1803 468.794 38.6003 475.225 33.6115C481.656 28.6228 490.28 26.1296 501.097 26.1321C512.388 26.1321 521.311 29.1366 527.867 35.1458C534.423 41.1549 537.696 50.409 537.692 62.9083V86.8849ZM482.884 90.6704C482.884 94.9975 485.408 97.7616 490.456 98.963C496.342 100.406 501.933 99.2036 507.224 95.3577C512.388 91.6337 515.154 86.2852 515.513 79.313V77.5104C512.028 77.872 509.297 78.2026 507.313 78.5017C505.329 78.8014 502.868 79.192 499.92 79.6742C497.567 80.0141 495.244 80.5568 492.98 81.2958C491.232 81.9261 489.517 82.6483 487.844 83.4591C486.325 84.116 485.016 85.1757 484.058 86.5243C483.266 87.7602 482.857 89.2027 482.884 90.6704Z" fill="#A60111"/>
<path d="M561.85 -0.0078125H585.283V117.17H561.85V-0.0078125Z" fill="#A60111"/>
<path d="M661.905 94.4558L670.562 110.501C669.765 111.272 668.918 111.994 668.037 112.664C666.955 113.506 664.553 114.617 660.827 115.999C657.076 117.384 653.104 118.085 649.107 118.07C640.213 118.07 632.609 115.306 626.304 109.777C619.994 104.249 616.839 97.0378 616.839 88.1444V46.3228H598.805V28.6561H607.822C610.942 28.6561 613.438 27.6947 615.303 25.7719C617.164 23.8491 618.099 21.2646 618.094 18.0185V-0.0078125H639.908V27.0332H662.623V46.3228H639.908V86.7039C639.888 88.1444 640.179 89.5732 640.75 90.8942C641.326 92.2153 642.177 93.3985 643.245 94.3658C644.338 95.4049 645.628 96.2187 647.035 96.7599C648.443 97.3011 649.944 97.5598 651.45 97.5205C653.134 97.5013 654.807 97.2277 656.407 96.7097C657.8 96.3043 659.153 95.7921 660.462 95.1776L661.905 94.4558Z" fill="#A60111"/>
<path d="M103.352 22.9893V115.879C77.9737 115.879 57.418 95.095 57.418 69.4343C57.418 43.7734 77.9737 22.9893 103.352 22.9893Z" fill="#A60111"/>
<path d="M57.4184 117.088V0.976074C25.7234 0.976074 0 26.9852 0 59.0324C0 91.0793 25.7234 117.088 57.4184 117.088Z" fill="#A60111"/>
</svg>
