<svg width="91" height="71" viewBox="0 0 91 71" fill="none" xmlns="http://www.w3.org/2000/svg">
<g clip-path="url(#clip0_39_105)">
<path d="M10.9513 40.7065H0.307129L4.33104 23.4064H14.978L10.9541 40.7065H10.9513ZM4.39075 22.9749L5.2581 19.3923H15.9051L15.0378 22.9749H4.39075ZM5.44294 18.586L6.18516 15.4349H16.7696L16.0899 18.586H5.44294ZM6.49513 14.1375L7.11507 11.4179H17.6995L17.0796 14.1375H6.49513ZM50.6273 7.46621C50.8349 8.28948 50.9373 9.05314 50.9373 9.7515H7.4876L7.98241 7.46621H50.6273ZM48.5229 3.51167C48.7703 3.80124 48.9978 4.09932 49.2026 4.40875C49.4073 4.71819 49.6149 5.03614 49.8225 5.36545H8.47722L8.90947 3.51167H48.5229ZM42.5823 0.420151C43.4497 0.420151 44.3142 0.604677 45.1815 0.976568H9.52941L9.65454 0.420151H42.5823ZM17.017 25.5072C17.1421 24.8883 17.4094 24.19 17.8218 23.4064H42.952C41.8799 24.1076 40.805 24.6527 39.7329 25.0445C38.6608 25.4362 37.6484 25.6321 36.6986 25.6321H30.5703C30.2831 25.6321 29.9504 25.6832 29.5807 25.7854C29.2082 25.8876 28.847 26.0324 28.4972 26.2169C28.1474 26.4014 27.8488 26.6285 27.6014 26.8954C27.354 27.1623 27.1891 27.483 27.1066 27.8521L26.9815 28.2836C26.9417 28.9025 27.2175 29.3964 27.8176 29.7655C28.4148 30.1374 28.9835 30.3219 29.5181 30.3219H46.2906L43.8762 40.7036H23.7595C22.5623 40.7036 21.4277 40.3942 20.3556 39.7782C19.2835 39.1593 18.3735 38.3559 17.6313 37.368C16.889 36.38 16.343 35.2786 15.9904 34.0635C15.6406 32.8485 15.6093 31.6221 15.8966 30.3872L17.0113 25.5072H17.017ZM18.0095 22.9749C18.382 22.3561 18.8228 21.7485 19.3403 21.1524C19.8551 20.5534 20.4039 19.9686 20.9812 19.3923H47.5333C46.4185 20.7521 45.1189 21.9473 43.6345 22.9749H18.0095ZM21.9083 18.586C22.8581 17.8025 23.8676 17.1325 24.9397 16.579C26.0118 16.0225 27.064 15.6421 28.0963 15.4349H49.6974C49.5324 15.9714 49.3248 16.5052 49.0774 17.0417C48.83 17.5782 48.5201 18.0921 48.1504 18.586H21.9083ZM39.6106 13.0247C39.7357 12.3661 39.548 11.8295 39.0532 11.4179H50.6898L50.0102 14.1375H38.9935C39.2836 13.848 39.4883 13.4789 39.6134 13.0247H39.6106Z" fill="#1E8114"/>
<path d="M55.8655 63.636H66.7599L67.2917 61.3507H56.4001L55.8655 63.636Z" fill="#1E8114"/>
<path d="M45.5285 52.9448C46.3332 53.9327 47.2916 54.7475 48.4063 55.3862C48.5855 55.4884 48.7675 55.5793 48.9466 55.6673H77.3841C77.6031 55.5821 77.8278 55.4884 78.0524 55.3862C79.4544 54.7475 80.7853 53.9356 82.0451 52.9448C82.2214 52.8057 82.3891 52.6581 82.5598 52.5133H45.21C45.3152 52.6581 45.4147 52.8057 45.5256 52.9448H45.5285Z" fill="#1E8114"/>
<path d="M54.9441 67.5905H65.8357L66.2679 65.7367H55.3763L54.9441 67.5905Z" fill="#1E8114"/>
<path d="M43.7625 49.6092C43.9872 50.3586 44.3028 51.0541 44.6839 51.7128H83.4527C84.1409 51.0541 84.7779 50.3586 85.3523 49.6092C85.7306 49.1152 86.0547 48.6212 86.3306 48.1273H43.4753C43.5179 48.6212 43.6118 49.1152 43.7597 49.6092H43.7625Z" fill="#1E8114"/>
<path d="M56.7869 59.6814H67.6813L68.3154 56.9647H57.421L56.7869 59.6814Z" fill="#1E8114"/>
<path d="M79.9094 30.3959L76.8154 43.7414C76.6505 44.4426 76.167 44.9877 75.3622 45.3794C74.5575 45.7712 73.8664 45.9671 73.2891 45.9671H57.4438C57.1537 45.9671 56.8551 45.916 56.5451 45.8138C56.2352 45.7116 55.9565 45.5668 55.7091 45.3823C55.4617 45.1977 55.2655 44.9593 55.1204 44.6726C54.9754 44.383 54.9441 44.0764 55.0266 43.7471L58.095 30.5151L58.1206 30.4016H47.2262L45.8498 36.3433L43.6345 45.9103C43.4952 46.5093 43.4355 47.1055 43.4497 47.7045H86.5552C86.851 47.1055 87.0671 46.5093 87.2093 45.9103L90.7981 30.4044H79.9037L79.9094 30.3959Z" fill="#1E8114"/>
<path d="M54.2247 70.6792H65.1162L65.247 70.1256H54.3526L54.2247 70.6792Z" fill="#1E8114"/>
</g>
<defs>
<clipPath id="clip0_39_105">
<rect width="91" height="71" fill="white"/>
</clipPath>
</defs>
</svg>
