<svg width="1510" height="714" viewBox="0 0 1510 714" fill="none" xmlns="http://www.w3.org/2000/svg">
<path d="M5.00011 120L5 639.5L44 678.5H229L254.5 708.5H737L775 678.5H1443.5L1504.5 620.5L1504.5 138.5H955.5L924.5 164.5H804.5L775 138.5H513.5L427 44.5H82.0001L5.00011 120Z" stroke="#1E8114" stroke-width="10" stroke-linecap="square"/>
<path d="M777 673.5H230.5L256.975 709H735.535L777 673.5Z" fill="#1E8114"/>
<path d="M960 133.5H775.5L802 164.5H921L960 133.5Z" fill="#1E8114"/>
<path d="M417 44.5H651L739 140" stroke="#1E8114" stroke-width="10"/>
<path d="M540.5 0L575 40H313L344.5 0H540.5Z" fill="#1E8114"/>
</svg>
