<svg width="1510" height="612" viewBox="0 0 1510 612" fill="none" xmlns="http://www.w3.org/2000/svg">
<path d="M5 37.5011L5 537.502L44 576.502H229L254.5 606.502L737 606.502L775 576.502L1443.5 576.502L1504.5 518.501V37.501L1303 37.501L1263.5 5L1125 5.00001L1088.5 37.501L955.5 37.501L924.5 66.0009L804.5 66.0009L775 37.501L513.5 37.501L463.5 5.00004L53.0002 5.00005L5 37.5011Z" stroke="#2AB01C" stroke-width="10" stroke-linecap="square"/>
<path d="M774 571.501L230 571.501L256.975 611.501L735.535 611.501L774 571.501Z" fill="#2AB01C"/>
<path d="M960 32.5013L775.5 32.5013L802 63.5013L921 63.5013L960 32.5013Z" fill="#2AB01C"/>
</svg>
