<svg width="336" height="240" viewBox="0 0 336 240" fill="none" xmlns="http://www.w3.org/2000/svg">
<path d="M334.5 2V215.379L311.379 238.5H1.49999V73.1162L54.625 19.5H210.609L211.046 19.0752L228.609 2H334.5Z" stroke="#1E8114" stroke-width="3"/>
<path d="M6 216V234H24L6 216Z" fill="#1E8114"/>
<path d="M208.405 15L223 0H201.595L187 15H208.405Z" fill="#1E8114"/>
<path d="M181.811 15L196 0H175.189L161 15H181.811Z" fill="#1E8114"/>
<path d="M156.405 15L171 0H149.595L135 15H156.405Z" fill="#1E8114"/>
<path d="M129.405 15L144 0H122.595L108 15H129.405Z" fill="#1E8114"/>
<path d="M103.811 15L118 0H97.1892L83 15H103.811Z" fill="#1E8114"/>
<path d="M77.4054 15L92 0H70.5946L56 15H77.4054Z" fill="#1E8114"/>
</svg>
